<svg width="412.9124755859375px" height="115.11494140625px" xmlns="http://www.w3.org/2000/svg" viewBox="43.54376220703125 17.442529296875 412.9124755859375 115.11494140625" style="background-color: rgba(0, 0, 0, 0);" preserveAspectRatio="xMidYMid"><defs><filter id="editing-extrusion" x="-100%" y="-100%" width="300%" height="300%"><feFlood result="color1" flood-color="#444"></feFlood><feConvolveMatrix order="8,8" divisor="1" kernelMatrix="1 0 0 0 0 0 0 0 0 1 0 0 0 0 0 0 0 0 1 0 0 0 0 0 0 0 0 1 0 0 0 0 0 0 0 0 1 0 0 0 0 0 0 0 0 1 0 0 0 0 0 0 0 0 1 0 0 0 0 0 0 0 0 1" in="SourceAlpha" result="extrude"></feConvolveMatrix><feComposite in="color1" in2="extrude" result="comp-extrude" operator="in"></feComposite><feOffset dx="4" dy="4" in="comp-extrude" result="offset-extrude"></feOffset><feMerge><feMergeNode in="offset-extrude"></feMergeNode><feMergeNode in="SourceGraphic"></feMergeNode></feMerge></filter></defs><g filter="url(#editing-extrusion)"><g transform="translate(107.18999147415161, 92.03187561035156)"><path d="M11.23-12.13L11.23-15.79L25.90-15.79L25.90 0L22.23 0L22.23-3.95L21.67-3.95L21.67-3.95Q20.87-1.88 18.85-0.61L18.85-0.61L18.85-0.61Q16.83 0.66 14.15 0.66L14.15 0.66L14.15 0.66Q8.84 0.66 5.80-2.77L5.80-2.77L5.80-2.77Q2.77-6.20 2.77-12.78L2.77-12.78L2.77-20.12L2.77-20.12Q2.77-26.51 5.83-30.03L5.83-30.03L5.83-30.03Q8.88-33.56 14.34-33.56L14.34-33.56L14.34-33.56Q17.16-33.56 19.32-32.64L19.32-32.64L19.32-32.64Q21.48-31.73 22.94-30.10L22.94-30.10L22.94-30.10Q24.39-28.48 25.14-26.30L25.14-26.30L25.14-26.30Q25.90-24.11 25.90-21.62L25.90-21.62L25.90-21.06L21.95-21.06L21.95-21.62L21.95-21.62Q21.95-23.22 21.50-24.72L21.50-24.72L21.50-24.72Q21.06-26.23 20.14-27.38L20.14-27.38L20.14-27.38Q19.22-28.53 17.79-29.21L17.79-29.21L17.79-29.21Q16.36-29.89 14.34-29.89L14.34-29.89L14.34-29.89Q10.53-29.89 8.62-27.12L8.62-27.12L8.62-27.12Q6.72-24.35 6.72-19.83L6.72-19.83L6.72-13.07L6.72-13.07Q6.72-8.22 8.62-5.62L8.62-5.62L8.62-5.62Q10.53-3.01 14.43-3.01L14.43-3.01L14.43-3.01Q17.95-3.01 19.95-5.26L19.95-5.26L19.95-5.26Q21.95-7.52 21.95-11.56L21.95-11.56L21.95-12.13L11.23-12.13ZM32.85 0L32.85-3.38L41.31-3.38L41.31-29.52L33.13-29.52L33.13-32.90L44.98-32.90L44.98-3.38L53.44-3.38L53.44 0L32.85 0ZM78.54-3.67L78.54-3.95L77.97-3.95L77.97-3.95Q76.84-1.60 74.85-0.47L74.85-0.47L74.85-0.47Q72.85 0.66 70.64 0.66L70.64 0.66L70.64 0.66Q68.34 0.66 66.36-0.12L66.36-0.12L66.36-0.12Q64.39-0.89 62.91-2.42L62.91-2.42L62.91-2.42Q61.43-3.95 60.58-6.16L60.58-6.16L60.58-6.16Q59.74-8.37 59.74-11.28L59.74-11.28L59.74-12.03L59.74-12.03Q59.74-14.90 60.58-17.11L60.58-17.11L60.58-17.11Q61.43-19.32 62.91-20.84L62.91-20.84L62.91-20.84Q64.39-22.37 66.36-23.17L66.36-23.17L66.36-23.17Q68.34-23.97 70.55-23.97L70.55-23.97L70.55-23.97Q72.94-23.97 74.89-22.91L74.89-22.91L74.89-22.91Q76.84-21.86 77.97-19.65L77.97-19.65L78.54-19.65L78.54-23.31L82.20-23.31L82.20-4.79L82.20-4.79Q82.20-3.38 83.47-3.38L83.47-3.38L84.65-3.38L84.65 0L82.16 0L82.16 0Q80.56 0 79.55-1.03L79.55-1.03L79.55-1.03Q78.54-2.07 78.54-3.67L78.54-3.67ZM71.02-2.82L71.02-2.82L71.02-2.82Q72.66-2.82 74.05-3.43L74.05-3.43L74.05-3.43Q75.44-4.04 76.42-5.17L76.42-5.17L76.42-5.17Q77.41-6.30 77.97-7.87L77.97-7.87L77.97-7.87Q78.54-9.45 78.54-11.37L78.54-11.37L78.54-11.94L78.54-11.94Q78.54-13.82 77.97-15.39L77.97-15.39L77.97-15.39Q77.41-16.97 76.40-18.09L76.40-18.09L76.40-18.09Q75.39-19.22 74.00-19.86L74.00-19.86L74.00-19.86Q72.61-20.49 71.02-20.49L71.02-20.49L71.02-20.49Q69.37-20.49 68.01-19.88L68.01-19.88L68.01-19.88Q66.65-19.27 65.64-18.17L65.64-18.17L65.64-18.17Q64.63-17.06 64.06-15.49L64.06-15.49L64.06-15.49Q63.50-13.91 63.50-12.03L63.50-12.03L63.50-11.28L63.50-11.28Q63.50-7.29 65.59-5.05L65.59-5.05L65.59-5.05Q67.68-2.82 71.02-2.82ZM108.52-9.12L112.19-8.27L112.19-8.27Q111.81-6.34 110.90-4.70L110.90-4.70L110.90-4.70Q109.98-3.06 108.57-1.86L108.57-1.86L108.57-1.86Q107.16-0.66 105.28 0L105.28 0L105.28 0Q103.40 0.66 101.10 0.66L101.10 0.66L101.10 0.66Q98.65 0.66 96.47-0.14L96.47-0.14L96.47-0.14Q94.28-0.94 92.64-2.47L92.64-2.47L92.64-2.47Q90.99-4.00 90.03-6.20L90.03-6.20L90.03-6.20Q89.06-8.41 89.06-11.28L89.06-11.28L89.06-11.84L89.06-11.84Q89.06-14.66 90.03-16.92L90.03-16.92L90.03-16.92Q90.99-19.18 92.64-20.73L92.64-20.73L92.64-20.73Q94.28-22.28 96.47-23.12L96.47-23.12L96.47-23.12Q98.65-23.97 101.10-23.97L101.10-23.97L101.10-23.97Q103.31-23.97 105.19-23.31L105.19-23.31L105.19-23.31Q107.07-22.65 108.50-21.46L108.50-21.46L108.50-21.46Q109.93-20.26 110.85-18.61L110.85-18.61L110.85-18.61Q111.77-16.97 112.09-15.04L112.09-15.04L108.43-14.19L108.43-14.19Q108.29-15.42 107.75-16.57L107.75-16.57L107.75-16.57Q107.21-17.72 106.29-18.59L106.29-18.59L106.29-18.59Q105.37-19.46 104.06-19.98L104.06-19.98L104.06-19.98Q102.74-20.49 101.00-20.49L101.00-20.49L101.00-20.49Q99.31-20.49 97.83-19.86L97.83-19.86L97.83-19.86Q96.35-19.22 95.22-18.07L95.22-18.07L95.22-18.07Q94.09-16.92 93.46-15.32L93.46-15.32L93.46-15.32Q92.83-13.72 92.83-11.84L92.83-11.84L92.83-11.28L92.83-11.28Q92.83-9.31 93.46-7.73L93.46-7.73L93.46-7.73Q94.09-6.16 95.22-5.08L95.22-5.08L95.22-5.08Q96.35-4.00 97.85-3.41L97.85-3.41L97.85-3.41Q99.36-2.82 101.10-2.82L101.10-2.82L101.10-2.82Q102.84-2.82 104.13-3.36L104.13-3.36L104.13-3.36Q105.42-3.90 106.34-4.77L106.34-4.77L106.34-4.77Q107.25-5.64 107.79-6.77L107.79-6.77L107.79-6.77Q108.34-7.90 108.52-9.12L108.52-9.12ZM140.62-10.53L121.82-10.53L121.82-10.53Q121.97-7.05 123.99-4.93L123.99-4.93L123.99-4.93Q126.01-2.82 129.63-2.82L129.63-2.82L129.63-2.82Q131.27-2.82 132.49-3.20L132.49-3.20L132.49-3.20Q133.72-3.57 134.58-4.23L134.58-4.23L134.58-4.23Q135.45-4.89 135.99-5.76L135.99-5.76L135.99-5.76Q136.53-6.63 136.86-7.61L136.86-7.61L140.34-6.67L140.34-6.67Q139.35-3.43 136.70-1.39L136.70-1.39L136.70-1.39Q134.04 0.66 129.53 0.66L129.53 0.66L129.53 0.66Q127.04 0.66 124.95-0.21L124.95-0.21L124.95-0.21Q122.86-1.08 121.35-2.68L121.35-2.68L121.35-2.68Q119.85-4.28 119.00-6.49L119.00-6.49L119.00-6.49Q118.16-8.70 118.16-11.37L118.16-11.37L118.16-12.50L118.16-12.50Q118.16-14.95 119.03-17.06L119.03-17.06L119.03-17.06Q119.90-19.18 121.45-20.70L121.45-20.70L121.45-20.70Q123.00-22.23 125.09-23.10L125.09-23.10L125.09-23.10Q127.18-23.97 129.63-23.97L129.63-23.97L129.63-23.97Q132.49-23.97 134.58-22.91L134.58-22.91L134.58-22.91Q136.68-21.86 138.02-20.30L138.02-20.30L138.02-20.30Q139.35-18.75 139.99-16.92L139.99-16.92L139.99-16.92Q140.62-15.09 140.62-13.54L140.62-13.54L140.62-10.53ZM129.63-20.49L129.63-20.49L129.63-20.49Q128.07-20.49 126.74-20.00L126.74-20.00L126.74-20.00Q125.40-19.50 124.39-18.61L124.39-18.61L124.39-18.61Q123.38-17.72 122.74-16.52L122.74-16.52L122.74-16.52Q122.11-15.32 121.92-13.91L121.92-13.91L136.96-13.91L136.96-13.91Q136.86-15.42 136.23-16.64L136.23-16.64L136.23-16.64Q135.59-17.86 134.58-18.71L134.58-18.71L134.58-18.71Q133.57-19.55 132.28-20.02L132.28-20.02L132.28-20.02Q130.99-20.49 129.63-20.49ZM130.99-32.34L135.22-32.34L131.27-26.79L127.89-26.79L130.99-32.34ZM176.67 0L176.67-32.90L180.62-32.90L180.62-3.67L197.82-3.67L197.82 0L176.67 0ZM222.36-3.67L222.36-3.95L221.79-3.95L221.79-3.95Q220.67-1.60 218.67-0.47L218.67-0.47L218.67-0.47Q216.67 0.66 214.46 0.66L214.46 0.66L214.46 0.66Q212.16 0.66 210.18-0.12L210.18-0.12L210.18-0.12Q208.21-0.89 206.73-2.42L206.73-2.42L206.73-2.42Q205.25-3.95 204.40-6.16L204.40-6.16L204.40-6.16Q203.56-8.37 203.56-11.28L203.56-11.28L203.56-12.03L203.56-12.03Q203.56-14.90 204.40-17.11L204.40-17.11L204.40-17.11Q205.25-19.32 206.73-20.84L206.73-20.84L206.73-20.84Q208.21-22.37 210.18-23.17L210.18-23.17L210.18-23.17Q212.16-23.97 214.37-23.97L214.37-23.97L214.37-23.97Q216.76-23.97 218.71-22.91L218.71-22.91L218.71-22.91Q220.67-21.86 221.79-19.65L221.79-19.65L222.36-19.65L222.36-23.31L226.02-23.31L226.02-4.79L226.02-4.79Q226.02-3.38 227.29-3.38L227.29-3.38L228.47-3.38L228.47 0L225.98 0L225.98 0Q224.38 0 223.37-1.03L223.37-1.03L223.37-1.03Q222.36-2.07 222.36-3.67L222.36-3.67ZM214.84-2.82L214.84-2.82L214.84-2.82Q216.48-2.82 217.87-3.43L217.87-3.43L217.87-3.43Q219.26-4.04 220.24-5.17L220.24-5.17L220.24-5.17Q221.23-6.30 221.79-7.87L221.79-7.87L221.79-7.87Q222.36-9.45 222.36-11.37L222.36-11.37L222.36-11.94L222.36-11.94Q222.36-13.82 221.79-15.39L221.79-15.39L221.79-15.39Q221.23-16.97 220.22-18.09L220.22-18.09L220.22-18.09Q219.21-19.22 217.82-19.86L217.82-19.86L217.82-19.86Q216.44-20.49 214.84-20.49L214.84-20.49L214.84-20.49Q213.19-20.49 211.83-19.88L211.83-19.88L211.83-19.88Q210.47-19.27 209.46-18.17L209.46-18.17L209.46-18.17Q208.45-17.06 207.88-15.49L207.88-15.49L207.88-15.49Q207.32-13.91 207.32-12.03L207.32-12.03L207.32-11.28L207.32-11.28Q207.32-7.29 209.41-5.05L209.41-5.05L209.41-5.05Q211.50-2.82 214.84-2.82ZM237.02-3.57L237.02 0L233.36 0L233.36-32.90L237.02-32.90L237.02-19.65L237.59-19.65L237.59-19.65Q238.81-21.76 240.97-22.87L240.97-22.87L240.97-22.87Q243.13-23.97 245.67-23.97L245.67-23.97L245.67-23.97Q247.83-23.97 249.76-23.17L249.76-23.17L249.76-23.17Q251.69-22.37 253.17-20.87L253.17-20.87L253.17-20.87Q254.65-19.36 255.52-17.16L255.52-17.16L255.52-17.16Q256.39-14.95 256.39-12.13L256.39-12.13L256.39-11.19L256.39-11.19Q256.39-8.32 255.54-6.11L255.54-6.11L255.54-6.11Q254.69-3.90 253.21-2.40L253.21-2.40L253.21-2.40Q251.73-0.89 249.76-0.12L249.76-0.12L249.76-0.12Q247.78 0.66 245.58 0.66L245.58 0.66L245.58 0.66Q244.45 0.66 243.27 0.40L243.27 0.40L243.27 0.40Q242.10 0.14 241.04-0.40L241.04-0.40L241.04-0.40Q239.98-0.94 239.09-1.72L239.09-1.72L239.09-1.72Q238.20-2.49 237.59-3.57L237.59-3.57L237.02-3.57ZM244.82-2.82L244.82-2.82L244.82-2.82Q246.52-2.82 247.93-3.41L247.93-3.41L247.93-3.41Q249.34-4.00 250.39-5.08L250.39-5.08L250.39-5.08Q251.45-6.16 252.04-7.71L252.04-7.71L252.04-7.71Q252.63-9.26 252.63-11.19L252.63-11.19L252.63-12.13L252.63-12.13Q252.63-14.01 252.04-15.53L252.04-15.53L252.04-15.53Q251.45-17.06 250.39-18.17L250.39-18.17L250.39-18.17Q249.34-19.27 247.90-19.88L247.90-19.88L247.90-19.88Q246.47-20.49 244.82-20.49L244.82-20.49L244.82-20.49Q243.18-20.49 241.77-19.86L241.77-19.86L241.77-19.86Q240.36-19.22 239.30-18.09L239.30-18.09L239.30-18.09Q238.24-16.97 237.63-15.39L237.63-15.39L237.63-15.39Q237.02-13.82 237.02-11.94L237.02-11.94L237.02-11.37L237.02-11.37Q237.02-9.45 237.63-7.87L237.63-7.87L237.63-7.87Q238.24-6.30 239.30-5.17L239.30-5.17L239.30-5.17Q240.36-4.04 241.77-3.43L241.77-3.43L241.77-3.43Q243.18-2.82 244.82-2.82ZM267.81-17.30L267.81-17.30L267.81-17.30Q267.81-15.60 269.24-14.71L269.24-14.71L269.24-14.71Q270.67-13.82 274.48-13.54L274.48-13.54L274.48-13.54Q278.57-13.21 280.71-11.59L280.71-11.59L280.71-11.59Q282.85-9.96 282.85-6.86L282.85-6.86L282.85-6.58L282.85-6.58Q282.85-4.89 282.16-3.55L282.16-3.55L282.16-3.55Q281.48-2.21 280.28-1.27L280.28-1.27L280.28-1.27Q279.09-0.33 277.37 0.16L277.37 0.16L277.37 0.16Q275.66 0.66 273.63 0.66L273.63 0.66L273.63 0.66Q270.91 0.66 268.96-0.07L268.96-0.07L268.96-0.07Q267.01-0.80 265.71-2.00L265.71-2.00L265.71-2.00Q264.42-3.20 263.76-4.72L263.76-4.72L263.76-4.72Q263.11-6.25 263.01-7.80L263.01-7.80L266.49-8.65L266.49-8.65Q266.73-5.97 268.56-4.35L268.56-4.35L268.56-4.35Q270.39-2.73 273.45-2.73L273.45-2.73L273.45-2.73Q276.03-2.73 277.61-3.74L277.61-3.74L277.61-3.74Q279.18-4.75 279.18-6.58L279.18-6.58L279.18-6.58Q279.18-8.55 277.63-9.40L277.63-9.40L277.63-9.40Q276.08-10.25 272.60-10.48L272.60-10.48L272.60-10.48Q268.56-10.76 266.40-12.36L266.40-12.36L266.40-12.36Q264.23-13.96 264.23-17.01L264.23-17.01L264.23-17.30L264.23-17.30Q264.23-18.94 264.94-20.19L264.94-20.19L264.94-20.19Q265.64-21.43 266.84-22.28L266.84-22.28L266.84-22.28Q268.04-23.12 269.55-23.55L269.55-23.55L269.55-23.55Q271.05-23.97 272.69-23.97L272.69-23.97L272.69-23.97Q275.00-23.97 276.74-23.34L276.74-23.34L276.74-23.34Q278.48-22.70 279.65-21.69L279.65-21.69L279.65-21.69Q280.83-20.68 281.46-19.36L281.46-19.36L281.46-19.36Q282.09-18.05 282.28-16.73L282.28-16.73L278.80-15.89L278.80-15.89Q278.57-18.14 276.99-19.41L276.99-19.41L276.99-19.41Q275.42-20.68 272.88-20.68L272.88-20.68L272.88-20.68Q271.90-20.68 270.98-20.47L270.98-20.47L270.98-20.47Q270.06-20.26 269.36-19.83L269.36-19.83L269.36-19.83Q268.65-19.41 268.23-18.78L268.23-18.78L268.23-18.78Q267.81-18.14 267.81-17.30Z" fill="#ccc"></path></g></g><style>text {
  font-size: 64px;
  font-family: Arial Black;
  dominant-baseline: central;
  text-anchor: middle;
}</style></svg>